HIERARCHY
ROOT Hips
{
	OFFSET 0.000000 0.000000 0.000000
	CHANNELS 6 Xposition Yposition Zposition Xrotation Yrotation Zrotation
	JOINT LeftUpLeg_virtual
	{
		OFFSET 0.000000 0.000000 0.000000
		CHANNELS 3 Xrotation Yrotation Zrotation
		JOINT LeftUpLeg
		{
			OFFSET 10.205400 -3.823500 0.155100
			CHANNELS 3 Xrotation Yrotation Zrotation
			JOINT LeftLeg
			{
				OFFSET 0.708757 -12.982077 0.567790
				CHANNELS 3 Xrotation Yrotation Zrotation
				JOINT LeftFoot
				{
					OFFSET -0.708756 -10.717838 -2.184338
					CHANNELS 3 Xrotation Yrotation Zrotation
					JOINT LeftToeBase
					{
						OFFSET 0.108149 -7.191104 7.560241
						CHANNELS 3 Xrotation Yrotation Zrotation
						JOINT LeftToe_End
						{
							OFFSET 0.070230 0.081724 4.490308
							CHANNELS 3 Xrotation Yrotation Zrotation
							End Site
							{
								OFFSET 0 0 0
							}
						}
					}
				}
			}
		}
	}
	JOINT RightUpLeg_virtual
	{
		OFFSET 0.000000 0.000000 0.000000
		CHANNELS 3 Xrotation Yrotation Zrotation
		JOINT RightUpLeg
		{
			OFFSET -10.205400 -3.823500 0.005500
			CHANNELS 3 Xrotation Yrotation Zrotation
			JOINT RightLeg
			{
				OFFSET -0.708756 -12.982134 0.610632
				CHANNELS 3 Xrotation Yrotation Zrotation
				JOINT RightFoot
				{
					OFFSET 0.708754 -10.717769 -1.945823
					CHANNELS 3 Xrotation Yrotation Zrotation
					JOINT RightToeBase
					{
						OFFSET -0.108140 -7.191069 7.372968
						CHANNELS 3 Xrotation Yrotation Zrotation
						JOINT RightToe_End
						{
							OFFSET -0.070227 0.081735 4.479403
							CHANNELS 3 Xrotation Yrotation Zrotation
							End Site
							{
								OFFSET 0 0 0
							}
						}
					}
				}
			}
		}
	}
	JOINT Spine_virtual
	{
		OFFSET 0.000000 0.000000 0.000000
		CHANNELS 3 Xrotation Yrotation Zrotation
		JOINT Spine
		{
			OFFSET 0.000000 6.876099 0.125700
			CHANNELS 3 Xrotation Yrotation Zrotation
			JOINT Spine1
			{
				OFFSET 0.000000 5.730043 0.104720
				CHANNELS 3 Xrotation Yrotation Zrotation
				JOINT Spine1_split
				{
					OFFSET 0.000000 5.730043 0.104720
					CHANNELS 3 Xrotation Yrotation Zrotation
					JOINT Spine2
					{
						OFFSET 0.000000 5.730043 0.104720
						CHANNELS 3 Xrotation Yrotation Zrotation
						JOINT Neck_virtual
						{
							OFFSET 0.000000 0.000000 0.000000
							CHANNELS 3 Xrotation Yrotation Zrotation
							JOINT Neck
							{
								OFFSET 0.000000 10.314075 0.188496
								CHANNELS 3 Xrotation Yrotation Zrotation
								JOINT Head
								{
									OFFSET 0.000000 7.643700 -2.377400
									CHANNELS 3 Xrotation Yrotation Zrotation
									JOINT HeadTop_End
									{
										OFFSET 0.000000 43.788605 -13.619600
										CHANNELS 3 Xrotation Yrotation Zrotation
										End Site
										{
											OFFSET 0 0 0
										}
									}
								}
							}
						}
						JOINT LeftShoulder_virtual
						{
							OFFSET 0.000000 0.000000 0.000000
							CHANNELS 3 Xrotation Yrotation Zrotation
							JOINT LeftShoulder
							{
								OFFSET 2.196100 4.412489 0.087492
								CHANNELS 3 Xrotation Yrotation Zrotation
								JOINT LeftShoulder_split
								{
									OFFSET 2.196100 4.412489 0.087492
									CHANNELS 3 Xrotation Yrotation Zrotation
									JOINT LeftArm
									{
										OFFSET 8.771219 -2.981674 -0.026999
										CHANNELS 3 Xrotation Yrotation Zrotation
										JOINT LeftForeArm
										{
											OFFSET 8.512804 0.000000 -0.000000
											CHANNELS 3 Xrotation Yrotation Zrotation
											JOINT LeftHand
											{
												OFFSET 18.484802 0.000000 -0.000000
												CHANNELS 3 Xrotation Yrotation Zrotation
												End Site
												{
													OFFSET 0 0 0
												}
											}
										}
									}
								}
							}
						}
						JOINT RightShoulder_virtual
						{
							OFFSET 0.000000 0.000000 0.000000
							CHANNELS 3 Xrotation Yrotation Zrotation
							JOINT RightShoulder
							{
								OFFSET -2.196100 4.412496 0.070690
								CHANNELS 3 Xrotation Yrotation Zrotation
								JOINT RightShoulder_split
								{
									OFFSET -2.196100 4.412496 0.070690
									CHANNELS 3 Xrotation Yrotation Zrotation
									JOINT RightArm
									{
										OFFSET -8.771282 -2.981682 -0.094208
										CHANNELS 3 Xrotation Yrotation Zrotation
										JOINT RightForeArm
										{
											OFFSET -8.494598 0.000000 0.000000
											CHANNELS 3 Xrotation Yrotation Zrotation
											JOINT RightHand
											{
												OFFSET -18.483803 0.000000 0.000001
												CHANNELS 3 Xrotation Yrotation Zrotation
												End Site
												{
													OFFSET 0 0 0
												}
											}
										}
									}
								}
							}
						}
					}
				}
			}
		}
	}
}
MOTION
Frames: 11
Frame Time: 0.03333333
-0.156953 26.938393 -2.201374 0.000000 0.000000 0.000000 12.263547 3.820429 -3.496870 17.488223 2.734914 12.536713 39.261761 -5.635515 13.865877 -31.416121 4.840578 -9.622488 -25.697009 -0.284817 -5.074044 0.000000 0.000000 0.000000 14.125083 6.808560 -4.256865 -66.945491 1.926110 -2.577572 68.676473 -4.648262 0.055607 -5.869537 3.239521 -10.461750 -2.589868 0.970142 -0.731813 0.000000 0.000000 0.000000 12.712490 2.242822 -3.572964 0.171112 -3.887516 4.233456 2.607772 -2.430823 2.581823 0.930804 -1.615673 -0.131948 0.000000 0.000000 0.000000 2.895862 -2.672393 2.890532 -5.132327 1.674332 -1.406437 -17.007147 -9.344656 7.278616 0.000000 0.000000 0.000000 3.386855 -2.880069 1.947612 -0.416493 2.297743 -2.769563 -3.100220 2.805370 -2.948694 -16.893191 5.861332 -60.429586 -174.272427 -73.564621 -172.003547 0.000000 0.000000 0.000000 4.871614 -1.965128 2.814253 0.576617 -8.838902 15.906836 -0.794971 5.694545 0.716666 -27.484026 8.286855 54.850445 -173.790502 55.378105 173.203530 0.000000 0.000000 0.000000 
-0.462349 27.530704 -2.218510 0.000000 0.000000 0.000000 12.488665 3.965779 -3.244638 15.794063 1.549086 11.615784 39.470215 -3.846878 13.074982 -24.697911 5.067998 -8.962060 -22.305909 0.664873 -7.717809 0.000000 0.000000 0.000000 13.744316 5.706463 -3.940084 -66.204757 1.476876 -4.244848 68.567443 -4.196388 0.506394 -5.018978 3.352564 -10.015808 -1.691186 1.056282 -0.439350 0.000000 0.000000 0.000000 12.848387 2.173098 -3.426919 0.261895 -3.727075 4.521215 2.569602 -2.432804 2.326174 0.449248 -0.586008 -0.853643 0.000000 0.000000 0.000000 3.027768 -2.574576 2.556670 -4.799004 1.861624 -1.810404 -16.297982 -9.137171 7.593833 0.000000 0.000000 0.000000 3.533471 -2.830500 1.795771 -0.368869 1.116850 -1.882927 -2.980045 1.489613 -1.769985 -21.102050 4.559796 -60.112263 -173.750669 -74.442594 -171.457583 0.000000 0.000000 0.000000 4.993465 -1.883568 2.555784 0.540186 -8.214975 15.506350 -2.078266 5.914432 -0.191863 -31.252729 10.241592 54.559155 -174.698467 53.918804 173.994862 0.000000 0.000000 0.000000 
-0.607334 28.785107 -2.117645 0.000000 0.000000 0.000000 12.069120 4.722377 -3.277101 10.575487 2.237217 11.135257 41.122055 -1.575003 10.879667 -10.891424 4.524445 -7.115755 -11.476649 0.752975 -10.848172 0.000000 0.000000 0.000000 12.986512 4.562843 -3.744634 -62.947918 1.946015 -5.155463 63.327882 -3.032856 0.557512 -2.134416 3.243291 -9.239257 -1.642999 0.970080 0.036260 0.000000 0.000000 0.000000 12.577359 2.312426 -3.098505 0.947745 -2.927797 4.935746 2.544982 -2.207724 1.703236 0.267646 0.459203 -1.059401 0.000000 0.000000 0.000000 3.029387 -2.274771 1.813327 -4.114999 1.901585 -2.142049 -14.822236 -8.991849 7.995742 0.000000 0.000000 0.000000 3.655020 -2.494979 1.353115 -0.271642 -0.889963 -1.005110 -2.279512 0.924599 -1.037809 -28.002229 1.281248 -58.912410 -172.010910 -77.062484 -169.807245 0.000000 0.000000 0.000000 5.056482 -1.661727 1.920991 0.567165 -7.488070 14.280599 -2.303420 4.760191 -0.318691 -38.502159 13.693711 54.295028 -174.947250 55.157886 174.265064 0.000000 0.000000 0.000000 
-0.500860 30.420511 -1.875528 0.000000 0.000000 0.000000 11.236345 5.296744 -3.505112 3.101391 3.910563 11.040016 44.793156 0.618985 8.341367 6.091228 3.722953 -4.594585 0.780174 -0.136793 -12.888015 0.000000 0.000000 0.000000 11.920754 3.999678 -3.740457 -56.957357 2.998620 -5.061456 53.965396 -1.707902 0.775781 2.531156 2.903264 -8.451695 -4.080860 0.656973 0.501047 0.000000 0.000000 0.000000 11.774410 2.719234 -2.663715 2.111597 -1.753149 5.259915 2.674916 -1.823818 0.985719 0.116243 1.275079 -0.587494 0.000000 0.000000 0.000000 3.043190 -1.812675 1.025762 -3.232305 1.888569 -2.439853 -12.974775 -8.838080 8.433204 0.000000 0.000000 0.000000 3.815638 -1.972611 0.880968 -0.128296 -3.389605 -0.137063 -1.689417 1.219624 -0.800896 -36.539904 -3.369208 -57.801835 -167.808609 -81.313498 -165.843632 0.000000 0.000000 0.000000 5.132739 -1.353421 1.184455 0.593271 -6.849239 12.189910 -1.817869 2.850508 -0.194716 -47.721634 17.534246 54.742993 -174.654180 59.157675 174.165207 0.000000 0.000000 0.000000 
-0.312499 32.135319 -1.327034 0.000000 0.000000 0.000000 9.854764 5.385752 -3.527303 -5.534782 5.681635 10.607999 50.803108 2.732214 6.291717 19.544226 2.816111 -0.871846 8.474398 -0.985326 -12.618912 0.000000 0.000000 0.000000 10.446843 4.258628 -3.778160 -49.285521 4.008679 -4.342683 42.751332 -0.640165 1.438962 8.048147 2.688910 -7.189804 -9.101586 0.139733 0.674826 0.000000 0.000000 0.000000 10.545201 3.492402 -2.247230 3.654640 -0.538310 5.242743 3.047407 -1.395971 0.457159 0.319739 1.502501 0.136518 0.000000 0.000000 0.000000 3.206187 -1.315670 0.515798 -2.291963 1.833053 -2.729205 -11.040552 -8.634288 8.900771 0.000000 0.000000 0.000000 4.113019 -1.405800 0.645617 0.031205 -5.901765 1.027761 -1.468099 1.805874 -1.033851 -46.098408 -8.695073 -57.594901 -150.538066 -86.457737 -148.873795 0.000000 0.000000 0.000000 5.250319 -1.062199 0.666932 0.569882 -6.419425 9.065451 -1.216069 1.177625 -0.245541 -57.725897 20.584662 56.096279 -173.635553 65.812902 173.485999 0.000000 0.000000 0.000000 
-0.183510 33.541306 -0.481812 0.000000 0.000000 0.000000 7.765525 5.366650 -3.156848 -14.381173 6.912134 8.998324 60.538152 4.962475 5.242057 25.833903 1.707001 3.985283 10.936840 -1.408821 -10.700020 0.000000 0.000000 0.000000 8.369664 4.880461 -3.641784 -41.473093 4.544827 -3.325065 32.591156 0.150704 2.450328 12.494957 3.016608 -5.191167 -14.738409 -0.573382 0.530332 0.000000 0.000000 0.000000 8.593023 4.381882 -1.893897 5.436230 0.375752 4.698956 3.635898 -1.051899 0.304005 0.670679 1.646913 0.712112 0.000000 0.000000 0.000000 3.614513 -0.926726 0.475974 -1.376867 1.738504 -3.037790 -9.137976 -8.263243 9.443266 0.000000 0.000000 0.000000 4.556675 -0.919866 0.810210 0.206288 -7.864759 2.833896 -1.351806 2.268644 -1.357438 -55.860740 -13.258012 -58.652918 -31.324617 -87.273657 -30.006834 0.000000 0.000000 0.000000 5.494887 -0.885381 0.562768 0.472638 -6.305283 4.767070 -1.077232 -0.208567 -0.606810 -67.219170 22.128290 58.308615 -171.395182 74.461985 171.756213 0.000000 0.000000 0.000000 
-0.134710 34.416122 0.390562 0.000000 0.000000 0.000000 5.370156 5.331120 -2.442459 -23.233204 6.990704 5.423164 74.402610 7.353785 5.156385 26.019664 0.298586 8.488354 11.143735 -1.601909 -8.492654 0.000000 0.000000 0.000000 5.889357 5.489158 -3.028427 -34.763679 4.363466 -2.303662 25.792150 0.872417 3.428878 13.884962 4.101727 -2.908109 -18.778224 -1.320850 -0.010075 0.000000 0.000000 0.000000 6.278817 5.097801 -1.571055 7.307192 0.837330 3.703917 4.349172 -0.856595 0.536046 0.729870 1.914756 0.792285 0.000000 0.000000 0.000000 4.168175 -0.688900 0.895123 -0.413860 1.572770 -3.350935 -7.296369 -7.762628 10.072164 0.000000 0.000000 0.000000 5.155808 -0.611352 1.340413 0.486836 -8.898820 5.420812 -1.312889 2.390165 -1.378161 -65.160414 -15.982173 -60.557209 -7.629517 -82.834888 -6.650487 0.000000 0.000000 0.000000 5.803784 -0.868032 0.821469 0.292675 -6.406105 -0.556812 -1.319261 -1.160560 -1.359224 -75.862365 21.759051 60.985728 -163.630145 83.913853 164.516062 0.000000 0.000000 0.000000 
-0.215835 34.605507 1.124914 0.000000 0.000000 0.000000 2.791193 4.992723 -1.510513 -33.181407 6.342909 0.801362 89.654272 9.986289 5.253115 23.976460 -0.689956 11.326049 10.458579 -1.465311 -6.249377 0.000000 0.000000 0.000000 3.234173 5.254259 -2.059233 -30.126035 3.267043 -1.269016 23.389231 1.430956 4.097804 11.098828 5.438343 -0.993801 -19.674047 -1.864029 -0.674206 0.000000 0.000000 0.000000 3.755611 5.547600 -1.298350 9.232478 0.831283 2.456829 5.005448 -0.799905 0.996690 0.615434 1.936777 0.395474 0.000000 0.000000 0.000000 4.646701 -0.637194 1.526630 0.754928 1.360814 -3.549244 -5.536749 -7.158489 10.771132 0.000000 0.000000 0.000000 5.732772 -0.521998 2.011773 0.843022 -9.018712 8.821212 -1.202026 2.351481 -0.925181 -73.265267 -16.640462 -62.658386 -1.919754 -79.590787 -1.283184 0.000000 0.000000 0.000000 6.115293 -0.966363 1.266869 0.039619 -6.568085 -6.626849 -1.794609 -1.359834 -1.715702 -83.182080 19.564628 63.718097 -21.011626 87.267988 22.309367 0.000000 0.000000 0.000000 
-0.329384 34.144615 1.736902 0.000000 0.000000 0.000000 0.242815 4.240668 -0.589340 -44.373451 6.133704 -2.923138 103.013801 12.486307 4.663851 24.022533 -0.184601 11.822542 10.049666 -1.062066 -4.212332 0.000000 0.000000 0.000000 0.756245 4.041212 -1.095960 -27.571657 1.469784 -0.185258 25.663000 1.721470 4.225877 4.110218 6.202910 -0.183008 -17.209380 -2.158541 -1.064667 0.000000 0.000000 0.000000 1.009212 5.832558 -0.975328 11.131088 0.537844 1.214044 5.437352 -0.826802 1.427303 0.336522 1.863838 0.063579 0.000000 0.000000 0.000000 4.878583 -0.726600 2.060741 2.220650 1.080274 -3.506421 -3.996488 -6.452085 11.463516 0.000000 0.000000 0.000000 6.066122 -0.599789 2.525576 1.141257 -8.436489 12.540709 -1.239266 2.090748 -0.208179 -79.504911 -15.525040 -64.299367 1.542666 -78.422647 1.831217 0.000000 0.000000 0.000000 6.320307 -1.101186 1.640813 -0.234463 -6.461720 -12.743968 -2.068699 -1.325138 -1.441379 -88.878895 16.031829 66.128901 -2.552733 82.113770 4.054926 0.000000 0.000000 0.000000 
-0.360332 33.228718 2.049593 0.000000 0.000000 0.000000 -2.253300 2.777437 0.122996 -56.168901 6.798077 -4.705871 113.000173 14.302227 3.356477 28.132035 1.827618 10.385091 11.946384 -0.570703 -3.331160 0.000000 0.000000 0.000000 -1.353330 2.235919 -0.289077 -26.524442 -0.638970 0.749861 31.578891 1.522689 3.677158 -5.411384 6.132205 -0.981279 -12.988845 -2.206649 -1.050657 0.000000 0.000000 0.000000 -1.675097 5.702029 -0.570400 12.864602 0.205155 0.170312 5.554314 -0.879209 1.572381 0.103378 1.382226 0.173674 0.000000 0.000000 0.000000 4.772959 -0.857789 2.211083 3.944155 0.836704 -3.197925 -2.935998 -5.804046 12.017393 0.000000 0.000000 0.000000 6.064915 -0.772039 2.639635 1.326394 -7.575493 15.852102 -1.436473 1.724665 0.181549 -84.122515 -13.728766 -65.439674 4.893884 -78.877975 4.831125 0.000000 0.000000 0.000000 6.204713 -1.232997 1.712006 -0.434578 -5.733817 -18.181110 -1.944977 -1.317945 -0.322550 -93.116939 11.996403 67.578281 -0.409368 80.357510 1.832182 0.000000 0.000000 0.000000 
-0.288849 32.128067 2.325047 0.000000 0.000000 0.000000 -4.672567 0.632169 0.692507 -66.980025 7.789005 -4.208364 119.609289 15.019779 2.014645 34.840901 4.015384 7.728931 15.405761 -0.138382 -3.550212 0.000000 0.000000 0.000000 -3.035605 0.440308 0.311600 -26.501199 -2.673230 1.219411 39.698589 1.094664 2.711457 -15.011168 5.755973 -3.200738 -7.908112 -2.050909 -0.527886 0.000000 0.000000 0.000000 -4.045522 5.066006 -0.009507 14.323874 0.028004 -0.677923 5.346627 -0.919010 1.307204 0.058647 0.736602 0.463131 0.000000 0.000000 0.000000 4.388232 -0.969039 1.898627 5.630380 0.708211 -2.769428 -2.628260 -5.304168 12.342779 0.000000 0.000000 0.000000 5.682145 -0.951815 2.286229 1.430678 -7.016492 18.234928 -1.531475 1.082734 0.291609 -87.241405 -12.189040 -66.076063 8.341191 -79.939714 7.949970 0.000000 0.000000 0.000000 5.735014 -1.282675 1.425269 -0.496122 -4.363597 -22.303202 -1.552804 -1.613491 1.118476 -96.067963 8.340644 67.862301 -0.369731 80.837625 1.395739 0.000000 0.000000 0.000000 
